<svg xmlns="http://www.w3.org/2000/svg" xmlns:xlink="http://www.w3.org/1999/xlink" fill="none" version="1.1" width="414.20001220703125" height="119.300048828125" viewBox="0 0 414.20001220703125 119.300048828125"><g><g><path d="M97.6,5.799999713897705C89.5,5.799999713897705,82.9,12.399999713897705,82.9,20.499999713897704L82.9,54.99999971389771C82.9,58.0999997138977,82.7,61.0999997138977,82.3,64.0999997138977C82.2,64.99999971389771,82,65.8999997138977,81.9,66.69999971389771C78.7,83.7999997138977,68.4,89.49999971389771,56.2,89.49999971389771C44,89.49999971389771,33.7,83.7999997138977,30.5,66.69999971389771C30.3,65.8999997138977,30.2,64.99999971389771,30.1,64.0999997138977C29.7,61.0999997138977,29.5,57.99999971389771,29.5,54.89999971389771L29.5,20.499999713897704C29.5,12.399999713897705,22.9,5.799999713897705,14.8,5.799999713897705C6.6,5.799999713897705,0,12.399999713897705,0,20.499999713897704L0,61.5999997138977C0,65.7999997138977,0.4,69.8999997138977,1.3,73.99999971389771C6.8,99.8999997138977,29.3,119.2999997138977,56.1,119.2999997138977C82.9,119.2999997138977,105.4,99.8999997138977,111,73.99999971389771C111.9,69.8999997138977,112.3,65.7999997138977,112.3,61.5999997138977L112.3,20.499999713897704C112.3,12.399999713897705,105.7,5.799999713897705,97.6,5.799999713897705Z" fill="#D55E16" fill-opacity="1"/></g><g style="opacity:0.2800000011920929;"><path d="M0,20.399999618530273L0,20.499999618530275L0,20.399999618530273Z" fill="#D44C19" fill-opacity="1"/></g><g style="opacity:0.2800000011920929;"><path d="M112.30000305175781,20.399999618530273L112.30000305175781,20.499999618530275L112.30000305175781,20.399999618530273Z" fill="#D44C19" fill-opacity="1"/></g><g><path d="M83.19999694824219,20.399999618530273C83.19999694824219,22.699999618530274,82.99999694824218,22.299999618530272,82.5999969482422,24.599999618530273C79.89999694824219,39.999999618530275,69.0999969482422,45.099999618530276,56.19999694824219,45.099999618530276C43.29999694824219,45.099999618530276,32.39999694824219,39.999999618530275,29.79999694824219,24.599999618530273C29.399997948242188,22.299999618530272,29.199996948242188,22.699999618530274,29.199996948242188,20.399999618530273L29.199996948242188,20.499999618530275L29.199996948242188,54.999999618530275C29.199996948242188,58.099999618530276,29.399997948242188,61.099999618530276,29.79999694824219,64.09999961853028C29.899997948242188,64.99999961853027,30.099996948242186,65.89999961853027,30.199996948242188,66.69999961853027C46.79999694824219,73.49999961853027,65.49999694824218,73.49999961853027,82.19999694824219,66.69999961853027C82.39999694824219,65.89999961853027,82.49999694824218,64.99999961853027,82.5999969482422,64.09999961853028C82.99999694824218,61.099999618530276,83.19999694824219,57.999999618530275,83.19999694824219,54.89999961853027L83.19999694824219,20.499999618530275L83.19999694824219,20.399999618530273Z" fill="#D54A16" fill-opacity="1"/></g><g><ellipse cx="56.10000038146973" cy="17.100000381469727" rx="17.100000381469727" ry="17.100000381469727" fill="#D55E16" fill-opacity="1"/></g><g><path d="M171.70000305175782,61.49997512817383L155.0000030517578,39.60000512817383C154.1999970517578,38.500005128173825,153.8000030517578,37.199995128173825,153.8000030517578,35.89999512817383C153.8000030517578,32.49999512817383,156.60000305175782,29.89999961817383,160.0000030517578,29.89999961817383C160.10000305175782,29.89999961817383,160.10000305175782,29.89999961817383,160.19999305175782,29.89999961817383C162.3000030517578,29.799999228173828,164.3000030517578,30.69999912817383,165.70000305175782,32.39999512817383L178.4000030517578,49.599975128173824L191.0000030517578,32.39999512817383C192.3000030517578,30.799999128173827,194.4000030517578,29.799999228173828,196.5000030517578,29.89999961817383C199.9000030517578,29.799999228173828,202.70000305175782,32.30000512817383,202.8000030517578,35.699995128173825C202.8000030517578,35.799995128173826,202.8000030517578,35.799995128173826,202.8000030517578,35.89999512817383C202.8000030517578,37.199995128173825,202.4000030517578,38.49999512817383,201.60000305175782,39.60000512817383L185.0000030517578,61.39997512817383L185.0000030517578,83.29997512817383C185.0000030517578,86.29997512817383,183.10000305175782,89.29997512817383,178.4000030517578,89.29997512817383C173.70000305175782,89.29997512817383,171.8000030517578,86.29997512817383,171.8000030517578,83.29997512817383L171.70000305175782,61.49997512817383Z" fill="#565A5B" fill-opacity="1"/></g><g><path d="M205.89999389648438,36.4C205.89999389648438,32.3,208.6999938964844,30,212.50000389648437,30C216.29999389648438,30,219.09999389648436,32.3,219.09999389648436,36.4L219.09999389648436,83C219.09999389648436,87.1,216.29999389648438,89.4,212.50000389648437,89.4C208.6999938964844,89.4,205.89999389648438,87.1,205.89999389648438,83L205.89999389648438,36.4Z" fill="#565A5B" fill-opacity="1"/></g><g><path d="M226.60000610351562,36.4C226.60000610351562,32.3,229.40000610351564,30,233.20001610351562,30C237.00000610351563,30,239.8000061035156,32.3,239.8000061035156,36.4L239.8000061035156,65.1C239.8000061035156,72.7,245.00000610351563,78.7,253.40000610351564,78.7C260.8000061035156,78.8,266.8000061035156,72.9,266.90000610351564,65.5C266.90000610351564,65.4,266.90000610351564,65.2,266.90000610351564,65.1L266.90000610351564,36.4C266.90000610351564,32.3,269.70000610351565,30,273.5000061035156,30C277.3000061035156,30,280.1000061035156,32.3,280.1000061035156,36.4L280.1000061035156,65.7C280.1000061035156,79.5,267.90000610351564,89.9,253.40000610351564,89.9C238.70000610351562,89.9,226.60003662111563,79.6,226.60003662111563,65.7L226.60000610351562,36.4Z" fill="#565A5B" fill-opacity="1"/></g><g><path d="M287.5,36.4C287.5,32.3,290.3,30,294.10001,30C297.9,30,300.7,32.3,300.7,36.4L300.7,83C300.7,87.1,297.9,89.4,294.10001,89.4C290.3,89.4,287.5,87.1,287.5,83L287.5,36.4Z" fill="#565A5B" fill-opacity="1"/></g><g><path d="M306.29998779296875,59.69999809265137C306.29998779296875,42.59999809265137,318.6999877929687,29.499998092651367,336.6999877929687,29.499998092651367C354.3999877929688,29.499998092651367,367.09998779296876,43.09999809265137,367.09998779296876,59.69999809265137C367.09998779296876,76.69999809265137,354.79998779296875,89.89999809265137,336.6999877929687,89.89999809265137C318.6999877929687,89.89999809265137,306.29998779296875,76.69999809265137,306.29998779296875,59.69999809265137ZM353.1999877929687,59.69999809265137C353.1999877929687,49.799998092651364,347.59998779296876,40.799998092651364,336.59998779296876,40.799998092651364C325.59998779296876,40.799998092651364,319.99998779296874,49.69999809265137,319.99998779296874,59.69999809265137C319.99998779296874,69.69999809265137,325.3999877929688,78.59999809265136,336.59998779296876,78.59999809265136C347.79998779296875,78.59999809265136,353.1999877929687,69.69999809265137,353.1999877929687,59.69999809265137Z" fill="#565A5B" fill-opacity="1"/></g><g><path d="M409.59998251953124,37.69999389648437C409.69998251953126,40.899993896484375,407.19998251953126,43.69999389648437,403.89998251953125,43.799993896484374C403.7999825195312,43.799993896484374,403.69998251953126,43.799993896484374,403.59998251953124,43.799993896484374C399.9999825195313,43.799993896484374,397.19998251953126,41.299993896484374,391.89998251953125,41.299993896484374C388.09998251953124,41.299993896484374,384.69998251953126,43.19999389648437,384.69998251953126,46.59999389648438C384.69998251953126,55.09999389648438,414.19998251953126,49.59999389648438,414.19998251953126,70.79999389648438C414.19998251953126,82.49999389648437,403.7999825195312,89.79999389648438,391.59998251953124,89.79999389648438C384.7999825195312,89.79999389648438,370.1999816895312,88.29999389648438,370.1999816895312,80.59999389648438C370.0999756195313,77.49999389648437,372.59997251953126,74.89999389648438,375.79999251953126,74.79999389648438C375.8999925195312,74.79999389648438,376.0000025195312,74.79999389648438,376.09997251953126,74.79999389648438C380.19998251953126,74.79999389648438,385.19998251953126,77.99999389648437,390.89998251953125,77.99999389648437C396.59998251953124,77.99999389648437,399.89998251953125,74.99999389648437,399.89998251953125,70.89999389648438C399.89998251953125,61.19999389648437,370.39996351953124,66.99999389648437,370.39996351953124,47.999993896484376C370.39996351953124,36.499993896484376,380.4999825195313,29.399993896484375,392.2999825195312,29.399993896484375C397.19998251953126,29.499999896484375,409.59998251953124,31.200003896484375,409.59998251953124,37.69999389648437Z" fill="#565A5B" fill-opacity="1"/></g></g></svg>